<svg viewBox="0 0 96 96" xmlns="http://www.w3.org/2000/svg" xmlns:xlink="http://www.w3.org/1999/xlink" id="Icons_Statistics_LTR" overflow="hidden"><path d="M80 20C80.0032 16.134 76.8718 12.9974 73.0058 12.9942 69.1398 12.991 66.0032 16.1224 66 19.9884 65.998 22.3576 67.1946 24.5671 69.18 25.86L64 41 64 41C62.5703 40.9984 61.1744 41.4346 60 42.25L49.56 34.42C50.8988 30.7932 49.044 26.7678 45.4172 25.429 41.7904 24.0903 37.765 25.945 36.4263 29.5718 35.309 32.5984 36.405 35.9965 39.08 37.8L32.41 59 32 59C28.134 58.9908 24.9926 62.1173 24.9834 65.9833 24.9742 69.8493 28.1007 72.9908 31.9667 73 35.8327 73.0092 38.9741 69.8826 38.9833 66.0166 38.9886 63.8016 37.9452 61.7148 36.17 60.39L42.9 39 43 39C44.4986 38.9972 45.9568 38.5135 47.16 37.62L57.51 45.37C57.177 46.207 57.004 47.0991 57 48 56.9985 51.866 60.1313 55.0012 63.9973 55.0027 67.8633 55.0042 70.9985 51.8714 71 48.0055 71.0009 45.6458 69.8129 43.4444 67.84 42.15L73 27C76.866 27 80 23.866 80 20Z" stroke="none" stroke-width="1" stroke-linecap="butt" fill="#BA16BA" fill-opacity="1"/><path d="M20 13 14 13 14 83 83 83 83 77 20 77 20 13Z" stroke="none" stroke-width="1" stroke-linecap="butt" fill="#BA16BA" fill-opacity="1"/></svg>