<svg viewBox="0 0 96 96" xmlns="http://www.w3.org/2000/svg" xmlns:xlink="http://www.w3.org/1999/xlink" id="Icons_PuzzlePieces" overflow="hidden"><path d="M49.15 37.13 49.15 37.13 54.78 39.46C54.9811 35.7652 58.1394 32.933 61.8343 33.1341 64.4082 33.2742 66.6735 34.8785 67.66 37.26 68.6145 39.6444 68.1635 42.3617 66.49 44.31L73.27 47.12 73.39 47.17 83.38 23 59.14 13 55.37 22.27 55.37 22.27 55.08 22.96 55 22.64C53.8993 19.9962 50.8682 18.7399 48.22 19.83 47.059 20.3313 46.113 21.2276 45.55 22.36 44.6136 25.0632 46.0458 28.0138 48.7491 28.9502 49.9481 29.3656 51.2579 29.3264 52.43 28.84L52.75 28.71 52.56 29.17 52.56 29.17Z" stroke="none" stroke-width="1" stroke-linecap="butt" fill="#0070C0" fill-opacity="1"/><path d="M46.62 72.6C49.2416 71.7325 50.6637 68.904 49.7962 66.2824 48.9287 63.6608 46.1002 62.2388 43.4786 63.1062 42.4826 63.4358 41.6154 64.0703 41 64.92L41 55.92 34.93 55.92C34.9739 56.2516 34.9973 56.5855 35 56.92 35 61.3383 31.4183 64.92 27 64.92 22.5817 64.92 19 61.3383 19 56.92 19.0027 56.5855 19.0261 56.2516 19.07 55.92L13 55.92 13 81.92 41 81.92 41 70.92C41.1115 71.0735 41.2317 71.2204 41.36 71.36 41.4139 71.4625 41.4775 71.5596 41.55 71.65 42.732 72.7819 44.4176 73.2176 46 72.8 46.17 72.8 46.33 72.7 46.49 72.65Z" stroke="none" stroke-width="1" stroke-linecap="butt" fill="#0070C0" fill-opacity="1"/><path d="M59 55.9C59.1552 55.7871 59.3022 55.6635 59.44 55.53 59.5492 55.4883 59.6482 55.4235 59.73 55.34 60.9592 54.0227 61.3662 52.1371 60.79 50.43L60.79 50.28C59.8608 47.6796 56.9995 46.3249 54.3991 47.2541 51.7987 48.1833 50.444 51.0446 51.3732 53.645 51.6913 54.5354 52.2554 55.3173 53 55.9L44 55.9 44 60C44.3318 59.9598 44.6658 59.9398 45 59.94 49.4183 59.94 53 63.5217 53 67.94 53 72.3583 49.4183 75.94 45 75.94 44.6656 75.9369 44.3316 75.9136 44 75.87L44 81.9 70 81.9 70 55.9Z" stroke="none" stroke-width="1" stroke-linecap="butt" fill="#0070C0" fill-opacity="1"/><path d="M41 35.28 41 24.9 13 24.9 13 52.9 24 52.9C22.741 53.8443 22 55.3262 22 56.9 22 59.6614 24.2386 61.9 27 61.9 29.7614 61.9 32 59.6614 32 56.9 32 55.3262 31.259 53.8443 30 52.9L41 52.9 41 42.62C38.8493 44.6381 35.5007 44.6381 33.35 42.62 31.3231 40.6404 31.2848 37.3925 33.2644 35.3656 33.2926 35.3367 33.3211 35.3082 33.35 35.28 35.5007 33.2619 38.8493 33.2619 41 35.28Z" stroke="none" stroke-width="1" stroke-linecap="butt" fill="#0070C0" fill-opacity="1"/></svg>