<svg viewBox="0 0 900 900" xmlns="http://www.w3.org/2000/svg" xmlns:xlink="http://www.w3.org/1999/xlink" overflow="hidden"><path d="M414.9 542.8 236.9 720.8 291 774.7C313.6 797.2 294.5 839 260.8 840.7L84.2 850C63.2 851.1 47.2 835.1 48.4 814.1L57.6 637.6C59.4 603.9 101.1 584.9 123.6 607.4L177.7 661.5 355.7 483.7M544.5 483.5 722.5 661.5 776.4 607.4C799 584.8 840.7 603.8 842.4 637.6L851.6 814.1C852.7 835.1 836.7 851.1 815.8 850L639.2 840.8C605.5 839 586.5 797.3 609 774.8L663.1 720.7 485.3 542.7M358.6 416.5 180.6 238.5 126.7 292.6C104.1 315.2 62.4 296.2 60.7 262.4L51.4 85.9C50.3 64.9 66.3 48.9 87.2 50L263.8 59.2C297.5 61 316.5 102.7 294 125.2L239.9 179.3 417.7 357.3M482.1 357.2 660.1 179.2 606 125.3C583.4 102.8 602.4 61 636.2 59.3L812.7 50.1C833.7 49 849.7 65 848.5 86L839.3 262.5C837.5 296.2 795.8 315.2 773.3 292.7L719.2 238.6 541.2 416.4" stroke="none" stroke-width="1" stroke-linecap="butt" fill="#BA16BA" fill-opacity="1"/></svg>