<svg viewBox="0 0 96 96" xmlns="http://www.w3.org/2000/svg" xmlns:xlink="http://www.w3.org/1999/xlink" id="Icons_BooksOnShelf" overflow="hidden"><rect x="14" y="76" width="68" height="6" stroke="none" stroke-width="1" stroke-linecap="butt" fill="#0070C0" fill-opacity="1"/><rect x="14" y="14" width="8" height="58" stroke="none" stroke-width="1" stroke-linecap="butt" fill="#0070C0" fill-opacity="1"/><rect x="64" y="64" width="18" height="8" stroke="none" stroke-width="1" stroke-linecap="butt" fill="#0070C0" fill-opacity="1"/><rect x="64" y="30" width="18" height="30" stroke="none" stroke-width="1" stroke-linecap="butt" fill="#0070C0" fill-opacity="1"/><rect x="64" y="18" width="18" height="8" stroke="none" stroke-width="1" stroke-linecap="butt" fill="#0070C0" fill-opacity="1"/><path d="M52 36C50.9 36 50 35.1 50 34 50 32.9 50.9 32 52 32 53.1 32 54 32.9 54 34 54 35.1 53.1 36 52 36ZM52 68C50.9 68 50 67.1 50 66 50 64.9 50.9 64 52 64 53.1 64 54 64.9 54 66 54 67.1 53.1 68 52 68ZM60 28 44 28 44 72 60 72 60 28Z" stroke="none" stroke-width="1" stroke-linecap="butt" fill="#0070C0" fill-opacity="1"/><path d="M36 30 30 30 30 24 36 24 36 30ZM40 20 26 20 26 72 40 72 40 20Z" stroke="none" stroke-width="1" stroke-linecap="butt" fill="#0070C0" fill-opacity="1"/></svg>