<svg viewBox="0 0 96 96" xmlns="http://www.w3.org/2000/svg" overflow="hidden"><path d="M49.15 37.13l5.63 2.33a6.7 6.7 0 0112.88-2.2 6.89 6.89 0 01-1.17 7.05l6.78 2.81.12.05L83.38 23 59.14 13l-3.77 9.27-.29.69-.08-.32a5.2 5.2 0 00-6.78-2.81 5.35 5.35 0 00-2.67 2.53 5.18 5.18 0 006.88 6.48l.32-.13-.19.46zM46.62 72.6A5 5 0 1041 64.92v-9h-6.07c.044.332.067.666.07 1a8 8 0 11-16 0 8.17 8.17 0 01.07-1H13v26h28v-11c.111.153.232.3.36.44.054.103.117.2.19.29A4.7 4.7 0 0046 72.8c.17 0 .33-.1.49-.15z" fill="#0070C0"/><path d="M59 55.9a4.09 4.09 0 00.44-.37.811.811 0 00.29-.19 4.9 4.9 0 001.06-4.91v-.15A5 5 0 1053 55.9h-9V60a8.36 8.36 0 011-.06 8 8 0 110 16 8.259 8.259 0 01-1-.07v6.03h26v-26zM41 35.28V24.9H13v28h11a5 5 0 106 0h11V42.62a5.59 5.59 0 01-7.65 0 5.13 5.13 0 010-7.34 5.59 5.59 0 017.65 0z" fill="#0070C0"/></svg>